<svg xmlns="http://www.w3.org/2000/svg" width="1080" height="715" viewBox="0 0 1080 715" role="img" aria-labelledby="title desc"><title id="title">Coding agent 的自动研究循环</title><desc id="desc">通过固定开发集和等预算实验比较候选代码与模型，评估器独立维护；候选通过后保留，否则回滚。</desc><defs><symbol id="i-eye" viewBox="0 0 24 24"><path d="M2 12s3.5-7 10-7 10 7 10 7-3.5 7-10 7S2 12 2 12Z"/><circle cx="12" cy="12" r="3"/></symbol><symbol id="i-cube" viewBox="0 0 24 24"><path d="m12 2 9 5v10l-9 5-9-5V7l9-5Zm0 10L3 7m9 5 9-5m-9 5v10M7.5 4.5l9 5"/></symbol><symbol id="i-branch" viewBox="0 0 24 24"><circle cx="6" cy="5" r="2"/><circle cx="6" cy="19" r="2"/><circle cx="18" cy="6" r="2"/><path d="M6 7v10m0-4h6a6 6 0 0 0 6-5"/></symbol><symbol id="i-flask" viewBox="0 0 24 24"><path d="M9 3h6m-5 0v7L4 20c-.4.7 0 1 1 1h14c1 0 1.4-.3 1-1l-6-10V3M7 15h10"/></symbol><symbol id="i-sliders" viewBox="0 0 24 24"><path d="M4 3v4m0 4v10M12 3v10m0 4v4M20 3v1m0 4v13M1 7h6v4H1V7Zm8 6h6v4H9v-4Zm8-9h6v4h-6V4Z"/></symbol><symbol id="i-check" viewBox="0 0 24 24"><path d="m8 12 3 3 5-6M12 2l9 4v6c0 5-9 10-9 10S3 17 3 12V6l9-4Z"/></symbol><symbol id="i-code" viewBox="0 0 24 24"><path d="m7 6-6 6 6 6m10-12 6 6-6 6M14 3l-4 18"/></symbol><symbol id="i-database" viewBox="0 0 24 24"><ellipse cx="12" cy="5" rx="9" ry="3"/><path d="M3 5v14c0 4 18 4 18 0V5M3 12c0 4 18 4 18 0"/></symbol><symbol id="i-clock" viewBox="0 0 24 24"><circle cx="12" cy="12" r="9"/><path d="M12 7v5l4 2"/></symbol><symbol id="i-ruler" viewBox="0 0 24 24"><path d="m3 16 13-13 5 5L8 21l-5-5Zm6-6 3 3m1-7 3 3M5 14l3 3"/></symbol><symbol id="i-target" viewBox="0 0 24 24"><circle cx="12" cy="12" r="9"/><circle cx="12" cy="12" r="5"/><circle cx="12" cy="12" r="1"/></symbol><symbol id="i-file" viewBox="0 0 24 24"><path d="M14 2H5v20h14V7l-5-5Zm0 0v5h5M8 12h8m-8 4h6"/></symbol><symbol id="i-arrow" viewBox="0 0 24 24"><path d="M3 12h17m-6-6 6 6-6 6"/></symbol><symbol id="i-loop" viewBox="0 0 24 24"><path d="M20 8a8 8 0 0 0-14-3L3 8m0-6v6h6M4 16a8 8 0 0 0 14 3l3-3m0 6v-6h-6"/></symbol><symbol id="i-plus" viewBox="0 0 24 24"><path d="M12 4v16M4 12h16"/></symbol><symbol id="i-down" viewBox="0 0 24 24"><path d="m6 9 6 6 6-6"/></symbol><symbol id="i-search" viewBox="0 0 24 24"><circle cx="10" cy="10" r="6"/><path d="m15 15 6 6"/></symbol><symbol id="i-lock" viewBox="0 0 24 24"><rect x="5" y="10" width="14" height="11" rx="2"/><path d="M8 10V6a4 4 0 0 1 8 0v4m-4 5v2"/></symbol><symbol id="i-grip" viewBox="0 0 24 24"><path d="M7 2h10v6H7zM8 8v4H4v6l3 3m9-13v4h4v6l-3 3M9 16v4m6-4v4"/></symbol><symbol id="i-pipette" viewBox="0 0 24 24"><path d="M9 10C2-1 22-1 15 10l-1 2v7l-2 3-2-3v-7l-1-2Zm0 2h6m-5 4h4"/></symbol><symbol id="i-beaker" viewBox="0 0 24 24"><path d="M4 3h15l-2 3v14H5V6L4 3Zm1 10h12M5 8h3m-3 9h3"/></symbol><symbol id="i-tube" viewBox="0 0 24 24"><path d="M7 2h10M8 2v16a4 4 0 0 0 8 0V2M8 12h8m-8-5h3m-3 2h2"/></symbol><symbol id="i-rod" viewBox="0 0 24 24"><path d="m6 21 15-15a2.1 2.1 0 0 0-3-3L3 18a2.1 2.1 0 0 0 3 3ZM7 14l3 3"/></symbol><symbol id="i-wave" viewBox="0 0 24 24"><path d="M2 12h3l3-8 5 16 3-8h6"/></symbol><symbol id="i-layers" viewBox="0 0 24 24"><path d="m12 2 10 5-10 5L2 7l10-5ZM2 12l10 5 10-5M2 17l10 5 10-5"/></symbol><marker id="arrow" viewBox="0 0 10 10" refX="8" refY="5" markerWidth="7" markerHeight="7" orient="auto-start-reverse"><path d="M1 1L9 5L1 9" fill="none" stroke="#668276" stroke-width="1.5"/></marker></defs><style>text{font-family:Arial,"Noto Sans CJK SC","Microsoft YaHei",sans-serif;fill:#213d34}.en{fill:#637970}.minor{fill:#6a8077}</style><rect width="1080" height="715" rx="12" fill="white"/><text x="32" y="35" font-size="13" text-anchor="start" font-weight="600" style="fill:#607b6c">FIG. 07</text><text x="32" y="67" font-size="25" text-anchor="start" font-weight="600">Coding Agent 自动研究与版本选择</text><text x="32" y="94" font-size="15" text-anchor="start" font-weight="400" style="fill:#657c70">Agentic AutoResearch with Independent Evaluation</text><rect x="32" y="151" width="284" height="112" rx="8" fill="#eef4fa" stroke="#416b99"/><use href="#i-search" x="48" y="166" width="25" height="25" fill="none" stroke="#416b99" stroke-width="1.55" stroke-linecap="round" stroke-linejoin="round"/><text x="84" y="185" font-size="19" text-anchor="start" font-weight="600" style="fill:#416b99">失败归因</text><text x="48" y="215" font-size="15" text-anchor="start" font-weight="400" style="fill:#435e52">Failure Attribution</text><text x="48" y="242" font-size="14" text-anchor="start" font-weight="400" style="fill:#6a8077">感知 / 数据 / 标定 / 模型</text><rect x="398" y="151" width="284" height="112" rx="8" fill="#f3f0fa" stroke="#6557a0"/><use href="#i-code" x="414" y="166" width="25" height="25" fill="none" stroke="#6557a0" stroke-width="1.55" stroke-linecap="round" stroke-linejoin="round"/><text x="450" y="185" font-size="19" text-anchor="start" font-weight="600" style="fill:#6557a0">假设与代码修订</text><text x="414" y="215" font-size="15" text-anchor="start" font-weight="400" style="fill:#435e52">Hypothesis-driven Code Edit</text><text x="414" y="242" font-size="14" text-anchor="start" font-weight="400" style="fill:#6a8077">数据工具 / 辨识 / 训练配置</text><rect x="764" y="151" width="284" height="112" rx="8" fill="#edf7f2" stroke="#1c7162"/><use href="#i-flask" x="780" y="166" width="25" height="25" fill="none" stroke="#1c7162" stroke-width="1.55" stroke-linecap="round" stroke-linejoin="round"/><text x="816" y="185" font-size="19" text-anchor="start" font-weight="600" style="fill:#1c7162">受控实验</text><text x="780" y="215" font-size="15" text-anchor="start" font-weight="400" style="fill:#435e52">Controlled Experiment</text><text x="780" y="242" font-size="14" text-anchor="start" font-weight="400" style="fill:#6a8077">固定预算 / 快照 / 可复现日志</text><path d="M320 207 L392 207" fill="none" stroke="#668276" stroke-width="2" stroke-linejoin="round" marker-end="url(#arrow)"/><path d="M686 207 L758 207" fill="none" stroke="#668276" stroke-width="2" stroke-linejoin="round" marker-end="url(#arrow)"/><path d="M906 267 L906 313 L540 313 L540 357" fill="none" stroke="#668276" stroke-width="2" stroke-linejoin="round" marker-end="url(#arrow)"/><rect x="267" y="361" width="546" height="122" rx="8" fill="#fbf6ea" stroke="#9a712d"/><use href="#i-check" x="283" y="376" width="25" height="25" fill="none" stroke="#9a712d" stroke-width="1.55" stroke-linecap="round" stroke-linejoin="round"/><text x="319" y="395" font-size="19" text-anchor="start" font-weight="600" style="fill:#9a712d">独立开发集评估</text><text x="283" y="425" font-size="15" text-anchor="start" font-weight="400" style="fill:#435e52">Independent Development Evaluation</text><text x="283" y="452" font-size="14" text-anchor="start" font-weight="400" style="fill:#6a8077">准确度 / 校准 / 遗忘 / 交互与训练成本</text><text x="540" y="339" font-size="16" text-anchor="middle" font-weight="400" style="fill:#91702d">评估器独立维护 / Fixed Evaluation Protocol</text><path d="M540 487 L540 528 L282 528 L282 566" fill="none" stroke="#668276" stroke-width="2" stroke-linejoin="round" marker-end="url(#arrow)"/><path d="M540 528 L798 528 L798 566" fill="none" stroke="#668276" stroke-width="2" stroke-linejoin="round" marker-end="url(#arrow)"/><rect x="32" y="570" width="499" height="111" rx="8" fill="#edf7f2" stroke="#1c7162"/><use href="#i-check" x="48" y="585" width="25" height="25" fill="none" stroke="#1c7162" stroke-width="1.55" stroke-linecap="round" stroke-linejoin="round"/><text x="84" y="604" font-size="19" text-anchor="start" font-weight="600" style="fill:#1c7162">保留有效修订</text><text x="48" y="634" font-size="15" text-anchor="start" font-weight="400" style="fill:#435e52">Keep Validated Revision</text><text x="48" y="661" font-size="14" text-anchor="start" font-weight="400" style="fill:#6a8077">程序 H′ / 模型 θ′ / 证据与版本</text><rect x="549" y="570" width="499" height="111" rx="8" fill="#f6f8f6" stroke="#52645c"/><use href="#i-branch" x="565" y="585" width="25" height="25" fill="none" stroke="#52645c" stroke-width="1.55" stroke-linecap="round" stroke-linejoin="round"/><text x="601" y="604" font-size="19" text-anchor="start" font-weight="600" style="fill:#52645c">回滚与失败归档</text><text x="565" y="634" font-size="15" text-anchor="start" font-weight="400" style="fill:#435e52">Rollback &amp; Failure Archive</text><text x="565" y="661" font-size="14" text-anchor="start" font-weight="400" style="fill:#6a8077">保留基线 / 记录无效假设</text><path d="M32 625 L13 625 L13 128 L174 128 L174 146" fill="none" stroke="#668276" stroke-width="2" stroke-linejoin="round" stroke-dasharray="7 6" marker-end="url(#arrow)"/></svg>