<svg xmlns="http://www.w3.org/2000/svg" viewBox="0 0 370 1666" role="img" aria-labelledby="title desc"><title id="title">滴管实验手机版</title><desc id="desc">按压缩、浸入、释放排列。管尖先在空气中排气，保持压缩浸入，释放后液体上升；持管支撑一直保留。底部列出形变、气压、流量和液面的耦合关系。</desc><defs><marker id="arrow-172b39" viewBox="0 0 10 10" refX="9" refY="5" markerWidth="6" markerHeight="6" orient="auto"><path d="M1 1 9 5 1 9" fill="none" stroke="#172b39" stroke-width="1.5"/></marker><marker id="arrow-63717a" viewBox="0 0 10 10" refX="9" refY="5" markerWidth="6" markerHeight="6" orient="auto"><path d="M1 1 9 5 1 9" fill="none" stroke="#63717a" stroke-width="1.5"/></marker><marker id="arrow-227c79" viewBox="0 0 10 10" refX="9" refY="5" markerWidth="6" markerHeight="6" orient="auto"><path d="M1 1 9 5 1 9" fill="none" stroke="#227c79" stroke-width="1.5"/></marker><marker id="arrow-c25b37" viewBox="0 0 10 10" refX="9" refY="5" markerWidth="6" markerHeight="6" orient="auto"><path d="M1 1 9 5 1 9" fill="none" stroke="#c25b37" stroke-width="1.5"/></marker></defs><g font-family="Inter, -apple-system, BlinkMacSystemFont, PingFang SC, Microsoft YaHei, sans-serif"><defs><marker id="arrow-172b39" viewBox="0 0 10 10" refX="9" refY="5" markerWidth="6" markerHeight="6" orient="auto"><path d="M1 1 9 5 1 9" fill="none" stroke="#172b39" stroke-width="1.5"/></marker><marker id="arrow-63717a" viewBox="0 0 10 10" refX="9" refY="5" markerWidth="6" markerHeight="6" orient="auto"><path d="M1 1 9 5 1 9" fill="none" stroke="#63717a" stroke-width="1.5"/></marker><marker id="arrow-227c79" viewBox="0 0 10 10" refX="9" refY="5" markerWidth="6" markerHeight="6" orient="auto"><path d="M1 1 9 5 1 9" fill="none" stroke="#227c79" stroke-width="1.5"/></marker><marker id="arrow-c25b37" viewBox="0 0 10 10" refX="9" refY="5" markerWidth="6" markerHeight="6" orient="auto"><path d="M1 1 9 5 1 9" fill="none" stroke="#c25b37" stroke-width="1.5"/></marker></defs><svg x="0" y="0" width="370" height="490" viewBox="0 0 370 490"><g font-family="Inter, -apple-system, BlinkMacSystemFont, PingFang SC, Microsoft YaHei, sans-serif"><rect x="0" y="0" width="1120" height="574" rx="0" fill="#fbfaf6" stroke="none"/><text x="24" y="34" font-size="13" fill="#c25b37" font-weight="600" text-anchor="start">01</text><text x="58" y="35" font-size="21" fill="#172b39" font-weight="600" text-anchor="start">压缩</text><text x="24" y="61" font-size="13" fill="#63717a" font-weight="400" text-anchor="start">管尖在空气中，排出气体</text><path d="M351 210h27" fill="none" stroke="#63717a" stroke-width="1.7" stroke-linejoin="round" marker-end="url(#arrow-63717a)"/><path d="M97 300V418Q97 430 110 430H275Q288 430 288 418V300" fill="#f3f9f9" stroke="#63717a" stroke-width="2"/><path d="M99 355Q146 351 192 355T286 355V418Q286 428 274 428H111Q99 428 99 418Z" fill="#d7ecee"/><path d="M99 355H286" fill="none" stroke="#227c79" stroke-width="1.7" stroke-linejoin="round"/><path d="M182 174V308L188 324M202 174V308L196 324" fill="none" stroke="#63717a" stroke-width="2"/><path d="M180 174C180 156 170 145 170 112C170 77 214 77 214 112C214 145 204 156 204 174Z" fill="#c25b37" fill-opacity=".85" stroke="#c25b37" stroke-width="2"/><rect x="176" y="171" width="32" height="10" rx="2" fill="#e9ecea" stroke="#63717a"/><path d="M309 255H205M309 247V435M286 435H331" fill="none" stroke="#63717a" stroke-width="1.7" stroke-linejoin="round"/><rect x="178" y="249" width="28" height="12" rx="2" fill="#fbfaf6" stroke="#63717a"/><path d="M126 115H164" fill="none" stroke="#c25b37" stroke-width="1.7" stroke-linejoin="round" marker-end="url(#arrow-c25b37)"/><path d="M258 115H220" fill="none" stroke="#c25b37" stroke-width="1.7" stroke-linejoin="round" marker-end="url(#arrow-c25b37)"/><path d="M192 330V347" fill="none" stroke="#c25b37" stroke-width="1.7" stroke-linejoin="round" marker-end="url(#arrow-c25b37)"/><text x="192" y="469" font-size="14" fill="#172b39" font-weight="500" text-anchor="middle">记录压缩位移 x(t)</text><text x="394" y="34" font-size="13" fill="#c25b37" font-weight="600" text-anchor="start">02</text><text x="428" y="35" font-size="21" fill="#172b39" font-weight="600" text-anchor="start">浸入</text><text x="394" y="61" font-size="13" fill="#63717a" font-weight="400" text-anchor="start">保持压缩，固定浸入深度</text><path d="M721 210h27" fill="none" stroke="#63717a" stroke-width="1.7" stroke-linejoin="round" marker-end="url(#arrow-63717a)"/><path d="M467 300V418Q467 430 480 430H645Q658 430 658 418V300" fill="#f3f9f9" stroke="#63717a" stroke-width="2"/><path d="M469 355Q516 351 562 355T656 355V418Q656 428 644 428H481Q469 428 469 418Z" fill="#d7ecee"/><path d="M469 355H656" fill="none" stroke="#227c79" stroke-width="1.7" stroke-linejoin="round"/><path d="M552 204V384L558 400M572 204V384L566 400" fill="none" stroke="#63717a" stroke-width="2"/><path d="M550 204C550 186 540 175 540 142C540 107 584 107 584 142C584 175 574 186 574 204Z" fill="#c25b37" fill-opacity=".85" stroke="#c25b37" stroke-width="2"/><rect x="546" y="201" width="32" height="10" rx="2" fill="#e9ecea" stroke="#63717a"/><path d="M679 255H575M679 247V435M656 435H701" fill="none" stroke="#63717a" stroke-width="1.7" stroke-linejoin="round"/><rect x="548" y="249" width="28" height="12" rx="2" fill="#fbfaf6" stroke="#63717a"/><path d="M496 145H534" fill="none" stroke="#c25b37" stroke-width="1.7" stroke-linejoin="round" marker-end="url(#arrow-c25b37)"/><path d="M628 145H590" fill="none" stroke="#c25b37" stroke-width="1.7" stroke-linejoin="round" marker-end="url(#arrow-c25b37)"/><text x="562" y="469" font-size="14" fill="#172b39" font-weight="500" text-anchor="middle">持管支撑始终保留</text><text x="764" y="34" font-size="13" fill="#c25b37" font-weight="600" text-anchor="start">03</text><text x="798" y="35" font-size="21" fill="#172b39" font-weight="600" text-anchor="start">释放</text><text x="764" y="61" font-size="13" fill="#63717a" font-weight="400" text-anchor="start">胶头回弹，液体沿管内上升</text><path d="M837 300V418Q837 430 850 430H1015Q1028 430 1028 418V300" fill="#f3f9f9" stroke="#63717a" stroke-width="2"/><path d="M839 355Q886 351 932 355T1026 355V418Q1026 428 1014 428H851Q839 428 839 418Z" fill="#d7ecee"/><path d="M839 355H1026" fill="none" stroke="#227c79" stroke-width="1.7" stroke-linejoin="round"/><path d="M922 204V384L928 400M942 204V384L936 400" fill="none" stroke="#63717a" stroke-width="2"/><path d="M920 204C920 186 892 175 892 142C892 107 972 107 972 142C972 175 944 186 944 204Z" fill="#f1c9b2" fill-opacity=".85" stroke="#c25b37" stroke-width="2"/><rect x="916" y="201" width="32" height="10" rx="2" fill="#e9ecea" stroke="#63717a"/><path d="M1049 255H945M1049 247V435M1026 435H1071" fill="none" stroke="#63717a" stroke-width="1.7" stroke-linejoin="round"/><rect x="918" y="249" width="28" height="12" rx="2" fill="#fbfaf6" stroke="#63717a"/><path d="M925 296H939V384L935 400H929L925 384Z" fill="#227c79" fill-opacity=".65"/><path d="M900 366V308" fill="none" stroke="#227c79" stroke-width="1.7" stroke-linejoin="round" marker-end="url(#arrow-227c79)"/><text x="822" y="314" font-size="14" fill="#227c79" font-weight="400" text-anchor="start">h(t)</text><text x="977" y="157" font-size="14" fill="#c25b37" font-weight="400" text-anchor="start">p(t)</text><text x="932" y="469" font-size="14" fill="#172b39" font-weight="500" text-anchor="middle">同步观测回弹与液面</text><path d="M24 494H1096" fill="none" stroke="#d8dedf" stroke-width="1.7" stroke-linejoin="round"/><text x="24" y="527" font-size="16" fill="#172b39" font-weight="600" text-anchor="start">胶头形变 x(t)</text><text x="24" y="551" font-size="12" fill="#63717a" font-weight="400" text-anchor="start">改变气腔体积 V(t)</text><text x="268" y="536" font-size="22" fill="#227c79" font-weight="400" text-anchor="start">↔</text><text x="310" y="527" font-size="16" fill="#172b39" font-weight="600" text-anchor="start">气腔压力 p(t)</text><text x="310" y="551" font-size="12" fill="#63717a" font-weight="400" text-anchor="start">与形变、液面共同耦合</text><text x="554" y="536" font-size="22" fill="#227c79" font-weight="400" text-anchor="start">↔</text><text x="596" y="527" font-size="16" fill="#172b39" font-weight="600" text-anchor="start">管内流量 Q(t)</text><text x="596" y="551" font-size="12" fill="#63717a" font-weight="400" text-anchor="start">受压差、流阻与毛细影响</text><text x="840" y="536" font-size="22" fill="#227c79" font-weight="400" text-anchor="start">↔</text><text x="882" y="527" font-size="16" fill="#172b39" font-weight="600" text-anchor="start">液面高度 h(t)</text><text x="882" y="551" font-size="12" fill="#63717a" font-weight="400" text-anchor="start">同时改变剩余气体体积</text></g></svg><path d="M20 488H350" fill="none" stroke="#d8dedf" stroke-width="1.7" stroke-linejoin="round"/><svg x="0" y="490" width="370" height="490" viewBox="370 0 370 490"><g font-family="Inter, -apple-system, BlinkMacSystemFont, PingFang SC, Microsoft YaHei, sans-serif"><rect x="0" y="0" width="1120" height="574" rx="0" fill="#fbfaf6" stroke="none"/><text x="24" y="34" font-size="13" fill="#c25b37" font-weight="600" text-anchor="start">01</text><text x="58" y="35" font-size="21" fill="#172b39" font-weight="600" text-anchor="start">压缩</text><text x="24" y="61" font-size="13" fill="#63717a" font-weight="400" text-anchor="start">管尖在空气中，排出气体</text><path d="M351 210h27" fill="none" stroke="#63717a" stroke-width="1.7" stroke-linejoin="round" marker-end="url(#arrow-63717a)"/><path d="M97 300V418Q97 430 110 430H275Q288 430 288 418V300" fill="#f3f9f9" stroke="#63717a" stroke-width="2"/><path d="M99 355Q146 351 192 355T286 355V418Q286 428 274 428H111Q99 428 99 418Z" fill="#d7ecee"/><path d="M99 355H286" fill="none" stroke="#227c79" stroke-width="1.7" stroke-linejoin="round"/><path d="M182 174V308L188 324M202 174V308L196 324" fill="none" stroke="#63717a" stroke-width="2"/><path d="M180 174C180 156 170 145 170 112C170 77 214 77 214 112C214 145 204 156 204 174Z" fill="#c25b37" fill-opacity=".85" stroke="#c25b37" stroke-width="2"/><rect x="176" y="171" width="32" height="10" rx="2" fill="#e9ecea" stroke="#63717a"/><path d="M309 255H205M309 247V435M286 435H331" fill="none" stroke="#63717a" stroke-width="1.7" stroke-linejoin="round"/><rect x="178" y="249" width="28" height="12" rx="2" fill="#fbfaf6" stroke="#63717a"/><path d="M126 115H164" fill="none" stroke="#c25b37" stroke-width="1.7" stroke-linejoin="round" marker-end="url(#arrow-c25b37)"/><path d="M258 115H220" fill="none" stroke="#c25b37" stroke-width="1.7" stroke-linejoin="round" marker-end="url(#arrow-c25b37)"/><path d="M192 330V347" fill="none" stroke="#c25b37" stroke-width="1.7" stroke-linejoin="round" marker-end="url(#arrow-c25b37)"/><text x="192" y="469" font-size="14" fill="#172b39" font-weight="500" text-anchor="middle">记录压缩位移 x(t)</text><text x="394" y="34" font-size="13" fill="#c25b37" font-weight="600" text-anchor="start">02</text><text x="428" y="35" font-size="21" fill="#172b39" font-weight="600" text-anchor="start">浸入</text><text x="394" y="61" font-size="13" fill="#63717a" font-weight="400" text-anchor="start">保持压缩，固定浸入深度</text><path d="M721 210h27" fill="none" stroke="#63717a" stroke-width="1.7" stroke-linejoin="round" marker-end="url(#arrow-63717a)"/><path d="M467 300V418Q467 430 480 430H645Q658 430 658 418V300" fill="#f3f9f9" stroke="#63717a" stroke-width="2"/><path d="M469 355Q516 351 562 355T656 355V418Q656 428 644 428H481Q469 428 469 418Z" fill="#d7ecee"/><path d="M469 355H656" fill="none" stroke="#227c79" stroke-width="1.7" stroke-linejoin="round"/><path d="M552 204V384L558 400M572 204V384L566 400" fill="none" stroke="#63717a" stroke-width="2"/><path d="M550 204C550 186 540 175 540 142C540 107 584 107 584 142C584 175 574 186 574 204Z" fill="#c25b37" fill-opacity=".85" stroke="#c25b37" stroke-width="2"/><rect x="546" y="201" width="32" height="10" rx="2" fill="#e9ecea" stroke="#63717a"/><path d="M679 255H575M679 247V435M656 435H701" fill="none" stroke="#63717a" stroke-width="1.7" stroke-linejoin="round"/><rect x="548" y="249" width="28" height="12" rx="2" fill="#fbfaf6" stroke="#63717a"/><path d="M496 145H534" fill="none" stroke="#c25b37" stroke-width="1.7" stroke-linejoin="round" marker-end="url(#arrow-c25b37)"/><path d="M628 145H590" fill="none" stroke="#c25b37" stroke-width="1.7" stroke-linejoin="round" marker-end="url(#arrow-c25b37)"/><text x="562" y="469" font-size="14" fill="#172b39" font-weight="500" text-anchor="middle">持管支撑始终保留</text><text x="764" y="34" font-size="13" fill="#c25b37" font-weight="600" text-anchor="start">03</text><text x="798" y="35" font-size="21" fill="#172b39" font-weight="600" text-anchor="start">释放</text><text x="764" y="61" font-size="13" fill="#63717a" font-weight="400" text-anchor="start">胶头回弹，液体沿管内上升</text><path d="M837 300V418Q837 430 850 430H1015Q1028 430 1028 418V300" fill="#f3f9f9" stroke="#63717a" stroke-width="2"/><path d="M839 355Q886 351 932 355T1026 355V418Q1026 428 1014 428H851Q839 428 839 418Z" fill="#d7ecee"/><path d="M839 355H1026" fill="none" stroke="#227c79" stroke-width="1.7" stroke-linejoin="round"/><path d="M922 204V384L928 400M942 204V384L936 400" fill="none" stroke="#63717a" stroke-width="2"/><path d="M920 204C920 186 892 175 892 142C892 107 972 107 972 142C972 175 944 186 944 204Z" fill="#f1c9b2" fill-opacity=".85" stroke="#c25b37" stroke-width="2"/><rect x="916" y="201" width="32" height="10" rx="2" fill="#e9ecea" stroke="#63717a"/><path d="M1049 255H945M1049 247V435M1026 435H1071" fill="none" stroke="#63717a" stroke-width="1.7" stroke-linejoin="round"/><rect x="918" y="249" width="28" height="12" rx="2" fill="#fbfaf6" stroke="#63717a"/><path d="M925 296H939V384L935 400H929L925 384Z" fill="#227c79" fill-opacity=".65"/><path d="M900 366V308" fill="none" stroke="#227c79" stroke-width="1.7" stroke-linejoin="round" marker-end="url(#arrow-227c79)"/><text x="822" y="314" font-size="14" fill="#227c79" font-weight="400" text-anchor="start">h(t)</text><text x="977" y="157" font-size="14" fill="#c25b37" font-weight="400" text-anchor="start">p(t)</text><text x="932" y="469" font-size="14" fill="#172b39" font-weight="500" text-anchor="middle">同步观测回弹与液面</text><path d="M24 494H1096" fill="none" stroke="#d8dedf" stroke-width="1.7" stroke-linejoin="round"/><text x="24" y="527" font-size="16" fill="#172b39" font-weight="600" text-anchor="start">胶头形变 x(t)</text><text x="24" y="551" font-size="12" fill="#63717a" font-weight="400" text-anchor="start">改变气腔体积 V(t)</text><text x="268" y="536" font-size="22" fill="#227c79" font-weight="400" text-anchor="start">↔</text><text x="310" y="527" font-size="16" fill="#172b39" font-weight="600" text-anchor="start">气腔压力 p(t)</text><text x="310" y="551" font-size="12" fill="#63717a" font-weight="400" text-anchor="start">与形变、液面共同耦合</text><text x="554" y="536" font-size="22" fill="#227c79" font-weight="400" text-anchor="start">↔</text><text x="596" y="527" font-size="16" fill="#172b39" font-weight="600" text-anchor="start">管内流量 Q(t)</text><text x="596" y="551" font-size="12" fill="#63717a" font-weight="400" text-anchor="start">受压差、流阻与毛细影响</text><text x="840" y="536" font-size="22" fill="#227c79" font-weight="400" text-anchor="start">↔</text><text x="882" y="527" font-size="16" fill="#172b39" font-weight="600" text-anchor="start">液面高度 h(t)</text><text x="882" y="551" font-size="12" fill="#63717a" font-weight="400" text-anchor="start">同时改变剩余气体体积</text></g></svg><path d="M20 978H350" fill="none" stroke="#d8dedf" stroke-width="1.7" stroke-linejoin="round"/><svg x="0" y="980" width="370" height="490" viewBox="740 0 370 490"><g font-family="Inter, -apple-system, BlinkMacSystemFont, PingFang SC, Microsoft YaHei, sans-serif"><rect x="0" y="0" width="1120" height="574" rx="0" fill="#fbfaf6" stroke="none"/><text x="24" y="34" font-size="13" fill="#c25b37" font-weight="600" text-anchor="start">01</text><text x="58" y="35" font-size="21" fill="#172b39" font-weight="600" text-anchor="start">压缩</text><text x="24" y="61" font-size="13" fill="#63717a" font-weight="400" text-anchor="start">管尖在空气中，排出气体</text><path d="M351 210h27" fill="none" stroke="#63717a" stroke-width="1.7" stroke-linejoin="round" marker-end="url(#arrow-63717a)"/><path d="M97 300V418Q97 430 110 430H275Q288 430 288 418V300" fill="#f3f9f9" stroke="#63717a" stroke-width="2"/><path d="M99 355Q146 351 192 355T286 355V418Q286 428 274 428H111Q99 428 99 418Z" fill="#d7ecee"/><path d="M99 355H286" fill="none" stroke="#227c79" stroke-width="1.7" stroke-linejoin="round"/><path d="M182 174V308L188 324M202 174V308L196 324" fill="none" stroke="#63717a" stroke-width="2"/><path d="M180 174C180 156 170 145 170 112C170 77 214 77 214 112C214 145 204 156 204 174Z" fill="#c25b37" fill-opacity=".85" stroke="#c25b37" stroke-width="2"/><rect x="176" y="171" width="32" height="10" rx="2" fill="#e9ecea" stroke="#63717a"/><path d="M309 255H205M309 247V435M286 435H331" fill="none" stroke="#63717a" stroke-width="1.7" stroke-linejoin="round"/><rect x="178" y="249" width="28" height="12" rx="2" fill="#fbfaf6" stroke="#63717a"/><path d="M126 115H164" fill="none" stroke="#c25b37" stroke-width="1.7" stroke-linejoin="round" marker-end="url(#arrow-c25b37)"/><path d="M258 115H220" fill="none" stroke="#c25b37" stroke-width="1.7" stroke-linejoin="round" marker-end="url(#arrow-c25b37)"/><path d="M192 330V347" fill="none" stroke="#c25b37" stroke-width="1.7" stroke-linejoin="round" marker-end="url(#arrow-c25b37)"/><text x="192" y="469" font-size="14" fill="#172b39" font-weight="500" text-anchor="middle">记录压缩位移 x(t)</text><text x="394" y="34" font-size="13" fill="#c25b37" font-weight="600" text-anchor="start">02</text><text x="428" y="35" font-size="21" fill="#172b39" font-weight="600" text-anchor="start">浸入</text><text x="394" y="61" font-size="13" fill="#63717a" font-weight="400" text-anchor="start">保持压缩，固定浸入深度</text><path d="M721 210h27" fill="none" stroke="#63717a" stroke-width="1.7" stroke-linejoin="round" marker-end="url(#arrow-63717a)"/><path d="M467 300V418Q467 430 480 430H645Q658 430 658 418V300" fill="#f3f9f9" stroke="#63717a" stroke-width="2"/><path d="M469 355Q516 351 562 355T656 355V418Q656 428 644 428H481Q469 428 469 418Z" fill="#d7ecee"/><path d="M469 355H656" fill="none" stroke="#227c79" stroke-width="1.7" stroke-linejoin="round"/><path d="M552 204V384L558 400M572 204V384L566 400" fill="none" stroke="#63717a" stroke-width="2"/><path d="M550 204C550 186 540 175 540 142C540 107 584 107 584 142C584 175 574 186 574 204Z" fill="#c25b37" fill-opacity=".85" stroke="#c25b37" stroke-width="2"/><rect x="546" y="201" width="32" height="10" rx="2" fill="#e9ecea" stroke="#63717a"/><path d="M679 255H575M679 247V435M656 435H701" fill="none" stroke="#63717a" stroke-width="1.7" stroke-linejoin="round"/><rect x="548" y="249" width="28" height="12" rx="2" fill="#fbfaf6" stroke="#63717a"/><path d="M496 145H534" fill="none" stroke="#c25b37" stroke-width="1.7" stroke-linejoin="round" marker-end="url(#arrow-c25b37)"/><path d="M628 145H590" fill="none" stroke="#c25b37" stroke-width="1.7" stroke-linejoin="round" marker-end="url(#arrow-c25b37)"/><text x="562" y="469" font-size="14" fill="#172b39" font-weight="500" text-anchor="middle">持管支撑始终保留</text><text x="764" y="34" font-size="13" fill="#c25b37" font-weight="600" text-anchor="start">03</text><text x="798" y="35" font-size="21" fill="#172b39" font-weight="600" text-anchor="start">释放</text><text x="764" y="61" font-size="13" fill="#63717a" font-weight="400" text-anchor="start">胶头回弹，液体沿管内上升</text><path d="M837 300V418Q837 430 850 430H1015Q1028 430 1028 418V300" fill="#f3f9f9" stroke="#63717a" stroke-width="2"/><path d="M839 355Q886 351 932 355T1026 355V418Q1026 428 1014 428H851Q839 428 839 418Z" fill="#d7ecee"/><path d="M839 355H1026" fill="none" stroke="#227c79" stroke-width="1.7" stroke-linejoin="round"/><path d="M922 204V384L928 400M942 204V384L936 400" fill="none" stroke="#63717a" stroke-width="2"/><path d="M920 204C920 186 892 175 892 142C892 107 972 107 972 142C972 175 944 186 944 204Z" fill="#f1c9b2" fill-opacity=".85" stroke="#c25b37" stroke-width="2"/><rect x="916" y="201" width="32" height="10" rx="2" fill="#e9ecea" stroke="#63717a"/><path d="M1049 255H945M1049 247V435M1026 435H1071" fill="none" stroke="#63717a" stroke-width="1.7" stroke-linejoin="round"/><rect x="918" y="249" width="28" height="12" rx="2" fill="#fbfaf6" stroke="#63717a"/><path d="M925 296H939V384L935 400H929L925 384Z" fill="#227c79" fill-opacity=".65"/><path d="M900 366V308" fill="none" stroke="#227c79" stroke-width="1.7" stroke-linejoin="round" marker-end="url(#arrow-227c79)"/><text x="822" y="314" font-size="14" fill="#227c79" font-weight="400" text-anchor="start">h(t)</text><text x="977" y="157" font-size="14" fill="#c25b37" font-weight="400" text-anchor="start">p(t)</text><text x="932" y="469" font-size="14" fill="#172b39" font-weight="500" text-anchor="middle">同步观测回弹与液面</text><path d="M24 494H1096" fill="none" stroke="#d8dedf" stroke-width="1.7" stroke-linejoin="round"/><text x="24" y="527" font-size="16" fill="#172b39" font-weight="600" text-anchor="start">胶头形变 x(t)</text><text x="24" y="551" font-size="12" fill="#63717a" font-weight="400" text-anchor="start">改变气腔体积 V(t)</text><text x="268" y="536" font-size="22" fill="#227c79" font-weight="400" text-anchor="start">↔</text><text x="310" y="527" font-size="16" fill="#172b39" font-weight="600" text-anchor="start">气腔压力 p(t)</text><text x="310" y="551" font-size="12" fill="#63717a" font-weight="400" text-anchor="start">与形变、液面共同耦合</text><text x="554" y="536" font-size="22" fill="#227c79" font-weight="400" text-anchor="start">↔</text><text x="596" y="527" font-size="16" fill="#172b39" font-weight="600" text-anchor="start">管内流量 Q(t)</text><text x="596" y="551" font-size="12" fill="#63717a" font-weight="400" text-anchor="start">受压差、流阻与毛细影响</text><text x="840" y="536" font-size="22" fill="#227c79" font-weight="400" text-anchor="start">↔</text><text x="882" y="527" font-size="16" fill="#172b39" font-weight="600" text-anchor="start">液面高度 h(t)</text><text x="882" y="551" font-size="12" fill="#63717a" font-weight="400" text-anchor="start">同时改变剩余气体体积</text></g></svg><rect x="0" y="1470" width="370" height="196" rx="0" fill="#eef4f3" stroke="none"/><text x="20" y="1500" font-size="14" fill="#227c79" font-weight="600" text-anchor="start">耦合关系</text><text x="20" y="1534" font-size="15" fill="#172b39" font-weight="400" text-anchor="start">形变 x(t) ↔ 气腔体积 V(t)</text><text x="20" y="1570" font-size="15" fill="#172b39" font-weight="400" text-anchor="start">压力 p(t) ↔ 流量 Q(t)</text><text x="20" y="1606" font-size="15" fill="#172b39" font-weight="400" text-anchor="start">液面 h(t) ↔ 剩余气体体积</text></g></svg>