<svg xmlns="http://www.w3.org/2000/svg" viewBox="0 0 1120 800" role="img" aria-labelledby="title desc"><title id="title">Real2Sim AutoResearch 完整框架</title><desc id="desc">观测与场景建立后冻结协议。研究外循环诊断、设计、辨识、开发比较；内循环更新参数，补测创建新数据版本。候选冻结后独立测试，再交付可复现模型。</desc><defs><marker id="arrow-172b39" viewBox="0 0 10 10" refX="9" refY="5" markerWidth="6" markerHeight="6" orient="auto"><path d="M1 1 9 5 1 9" fill="none" stroke="#172b39" stroke-width="1.5"/></marker><marker id="arrow-63717a" viewBox="0 0 10 10" refX="9" refY="5" markerWidth="6" markerHeight="6" orient="auto"><path d="M1 1 9 5 1 9" fill="none" stroke="#63717a" stroke-width="1.5"/></marker><marker id="arrow-227c79" viewBox="0 0 10 10" refX="9" refY="5" markerWidth="6" markerHeight="6" orient="auto"><path d="M1 1 9 5 1 9" fill="none" stroke="#227c79" stroke-width="1.5"/></marker><marker id="arrow-c25b37" viewBox="0 0 10 10" refX="9" refY="5" markerWidth="6" markerHeight="6" orient="auto"><path d="M1 1 9 5 1 9" fill="none" stroke="#c25b37" stroke-width="1.5"/></marker></defs><g font-family="Inter, -apple-system, BlinkMacSystemFont, PingFang SC, Microsoft YaHei, sans-serif"><rect x="0" y="0" width="1120" height="800" rx="0" fill="#fbfaf6" stroke="none"/><text x="32" y="36" font-size="14" fill="#63717a" font-weight="600" text-anchor="start">01 / 从观测建立实验对象</text><rect x="32" y="56" width="316" height="98" rx="8" fill="white" stroke="#d8dedf"/><text x="50" y="80" font-size="11" fill="#172b39" font-weight="600" text-anchor="start">INPUT</text><text x="50" y="108" font-size="19" fill="#172b39" font-weight="600" text-anchor="start">真实 / 合成观测</text><text x="50" y="134" font-size="13" fill="#63717a" font-weight="400" text-anchor="start">视频 · 动作 · 尺度 · 测量</text><rect x="386" y="56" width="316" height="98" rx="8" fill="white" stroke="#d8dedf"/><text x="404" y="80" font-size="11" fill="#172b39" font-weight="600" text-anchor="start">SCENE</text><text x="404" y="108" font-size="19" fill="#172b39" font-weight="600" text-anchor="start">可执行物理场景</text><text x="404" y="134" font-size="13" fill="#63717a" font-weight="400" text-anchor="start">几何 · 碰撞 · 材料表示</text><rect x="740" y="56" width="316" height="98" rx="8" fill="white" stroke="#d8dedf"/><text x="758" y="80" font-size="11" fill="#172b39" font-weight="600" text-anchor="start">PROTOCOL</text><text x="758" y="108" font-size="19" fill="#172b39" font-weight="600" text-anchor="start">冻结研究协议</text><text x="758" y="134" font-size="13" fill="#63717a" font-weight="400" text-anchor="start">数据划分 · 指标 · 预算</text><path d="M348 105H382" fill="none" stroke="#63717a" stroke-width="1.7" stroke-linejoin="round" marker-end="url(#arrow-63717a)"/><path d="M702 105H736" fill="none" stroke="#63717a" stroke-width="1.7" stroke-linejoin="round" marker-end="url(#arrow-63717a)"/><path d="M898 154V191H178V215" fill="none" stroke="#227c79" stroke-width="1.7" stroke-linejoin="round" marker-end="url(#arrow-227c79)"/><text x="555" y="183" font-size="12" fill="#63717a" font-weight="400" text-anchor="middle">拟合数据 + 开发数据 / 封存测试隔离</text><rect x="32" y="218" width="1056" height="337" rx="12" fill="#eef4f3" stroke="#b9d2cd"/><text x="54" y="247" font-size="14" fill="#227c79" font-weight="600" text-anchor="start">02 / 研究外循环</text><text x="1062" y="247" font-size="12" fill="#227c79" font-weight="400" text-anchor="end">AGENT 决定下一步，证据决定是否保留</text><rect x="56" y="272" width="234" height="98" rx="8" fill="white" stroke="#d8dedf"/><text x="74" y="296" font-size="11" fill="#227c79" font-weight="600" text-anchor="start">01 · DIAGNOSE</text><text x="74" y="324" font-size="19" fill="#227c79" font-weight="600" text-anchor="start">诊断偏差</text><text x="74" y="350" font-size="13" fill="#63717a" font-weight="400" text-anchor="start">残差 → 竞争假设</text><rect x="314" y="272" width="234" height="98" rx="8" fill="white" stroke="#d8dedf"/><text x="332" y="296" font-size="11" fill="#227c79" font-weight="600" text-anchor="start">02 · DESIGN</text><text x="332" y="324" font-size="19" fill="#227c79" font-weight="600" text-anchor="start">设计实验</text><text x="332" y="350" font-size="13" fill="#63717a" font-weight="400" text-anchor="start">改参数 / 改机制 / 补测</text><rect x="572" y="272" width="234" height="98" rx="8" fill="white" stroke="#d8dedf"/><text x="590" y="296" font-size="11" fill="#227c79" font-weight="600" text-anchor="start">03 · IDENTIFY</text><text x="590" y="324" font-size="19" fill="#227c79" font-weight="600" text-anchor="start">执行与辨识</text><text x="590" y="350" font-size="13" fill="#63717a" font-weight="400" text-anchor="start">有界优化 · 敏感性检查</text><rect x="830" y="272" width="234" height="98" rx="8" fill="white" stroke="#d8dedf"/><text x="848" y="296" font-size="11" fill="#227c79" font-weight="600" text-anchor="start">04 · EVALUATE</text><text x="848" y="324" font-size="19" fill="#227c79" font-weight="600" text-anchor="start">开发集比较</text><text x="848" y="350" font-size="13" fill="#63717a" font-weight="400" text-anchor="start">接受 / 拒绝 / 证据不足</text><path d="M290 320h20" fill="none" stroke="#227c79" stroke-width="1.7" stroke-linejoin="round" marker-end="url(#arrow-227c79)"/><path d="M548 320h20" fill="none" stroke="#227c79" stroke-width="1.7" stroke-linejoin="round" marker-end="url(#arrow-227c79)"/><path d="M806 320h20" fill="none" stroke="#227c79" stroke-width="1.7" stroke-linejoin="round" marker-end="url(#arrow-227c79)"/><rect x="572" y="400" width="234" height="74" rx="8" fill="#fff" stroke="#b9d2cd"/><text x="589" y="425" font-size="12" fill="#227c79" font-weight="600" text-anchor="start">辨识内循环</text><text x="589" y="451" font-size="13" fill="#172b39" font-weight="400" text-anchor="start">θ → 仿真 → 残差 → 更新 θ</text><path d="M689 370V396" fill="none" stroke="#227c79" stroke-width="1.7" stroke-linejoin="round" marker-end="url(#arrow-227c79)"/><path d="M806 438H815V351H806" fill="none" stroke="#227c79" stroke-width="1.7" stroke-linejoin="round" marker-end="url(#arrow-227c79)"/><path d="M947 370V510H340V385H173V374" fill="none" stroke="#227c79" stroke-width="1.7" stroke-linejoin="round" marker-end="url(#arrow-227c79)"/><text x="640" y="503" font-size="13" fill="#227c79" font-weight="400" text-anchor="middle">决策 + 版本 + 失败原因 → 研究记忆 → 下一轮诊断</text><path d="M431 370V438H314" fill="none" stroke="#c25b37" stroke-width="1.7" stroke-linejoin="round" stroke-dasharray="6 5" marker-end="url(#arrow-c25b37)"/><rect x="56" y="402" width="254" height="74" rx="8" fill="#fff6ee" stroke="#e7c3ac"/><text x="72" y="427" font-size="13" fill="#c25b37" font-weight="600" text-anchor="start">证据不足 → 真实补测请求</text><text x="72" y="453" font-size="12" fill="#63717a" font-weight="400" text-anchor="start">采集完成 → 新数据版本 → 重评</text><path d="M56 438H15V106H28" fill="none" stroke="#c25b37" stroke-width="1.7" stroke-linejoin="round" stroke-dasharray="6 5" marker-end="url(#arrow-c25b37)"/><path d="M947 555V609H190V624" fill="none" stroke="#172b39" stroke-width="1.7" stroke-linejoin="round" marker-end="url(#arrow-172b39)"/><text x="932" y="593" font-size="12" fill="#63717a" font-weight="400" text-anchor="end">满足停止条件</text><text x="32" y="593" font-size="14" fill="#63717a" font-weight="600" text-anchor="start">03 / 冻结以后，才进入独立检验</text><rect x="32" y="628" width="316" height="98" rx="8" fill="white" stroke="#d8dedf"/><text x="50" y="652" font-size="11" fill="#172b39" font-weight="600" text-anchor="start">FREEZE</text><text x="50" y="680" font-size="19" fill="#172b39" font-weight="600" text-anchor="start">冻结选定候选</text><text x="50" y="706" font-size="13" fill="#63717a" font-weight="400" text-anchor="start">模型 · 参数 · 数据与代码版本</text><rect x="386" y="628" width="316" height="98" rx="8" fill="white" stroke="#d8dedf"/><text x="404" y="652" font-size="11" fill="#172b39" font-weight="600" text-anchor="start">HELD-OUT</text><text x="404" y="680" font-size="19" fill="#172b39" font-weight="600" text-anchor="start">独立测试</text><text x="404" y="706" font-size="13" fill="#63717a" font-weight="400" text-anchor="start">新动作 · 新条件 · 已知失败</text><rect x="740" y="628" width="316" height="98" rx="8" fill="white" stroke="#d8dedf"/><text x="758" y="652" font-size="11" fill="#172b39" font-weight="600" text-anchor="start">DELIVER</text><text x="758" y="680" font-size="19" fill="#172b39" font-weight="600" text-anchor="start">可复现数字孪生</text><text x="758" y="706" font-size="13" fill="#63717a" font-weight="400" text-anchor="start">场景 + 证据 + 重放 + 适用范围</text><path d="M348 676H382" fill="none" stroke="#63717a" stroke-width="1.7" stroke-linejoin="round" marker-end="url(#arrow-63717a)"/><path d="M702 676H736" fill="none" stroke="#63717a" stroke-width="1.7" stroke-linejoin="round" marker-end="url(#arrow-63717a)"/><path d="M32 752H1088" fill="none" stroke="#d8dedf" stroke-width="1.7" stroke-linejoin="round"/><text x="32" y="779" font-size="12" fill="#63717a" font-weight="400" text-anchor="start">实线：计算与决策流</text><text x="250" y="779" font-size="12" fill="#c25b37" font-weight="400" text-anchor="start">虚线：需要新真实证据</text><text x="1088" y="779" font-size="12" fill="#172b39" font-weight="600" text-anchor="end">最终测试不回流到本轮模型选择</text></g></svg>